<?xml version="1.0" encoding="utf-8"?>
<!-- Generator: Adobe Illustrator 25.4.1, SVG Export Plug-In . SVG Version: 6.00 Build 0)  -->
<svg version="1.1" id="Layer_1" xmlns="http://www.w3.org/2000/svg" xmlns:xlink="http://www.w3.org/1999/xlink" x="0px" y="0px"
	 viewBox="0 0 298 118.7" style="enable-background:new 0 0 298 118.7;" xml:space="preserve">
<style type="text/css">
	.st0{fill:#FFFFFF;}
	.st1{fill:#A51A42;}
</style>
<rect x="179.8" y="7.9" class="st0" width="113.3" height="104.8"/>
<g>
	<polygon class="st1" points="71.2,1 0,118.7 46.2,118.7 78.3,65 68.7,49.9 36.6,101.2 29.6,101.2 70.5,34 120,118.7 169.5,118.7 
		96.8,0 87.5,15.6 137.3,100.9 129.6,100.9 	"/>
	<polygon class="st1" points="93.9,118.7 111.2,118.7 83,72.8 54.6,118.7 71.2,118.7 82,101.3 	"/>
	<path class="st1" d="M126,0h-14.6h-5.6l72.8,119.9h7.6h12.6H298V0H126z M206.5,108.3h-20.9V12.1h66.7v17.2h-46.2v23h43.3v17h-42.8
		v39H206.5z M286,78.7c0,0-0.2,8.8-1.7,13.3c-1.4,4.5-4.1,9.9-8.1,12.4s-9.3,4.2-13.7,4.4s-13.4-0.4-15.2-0.8s-2.4-0.6-2.4-0.6
		l0.2-16.6l4.2,0.4c0,0,4.6,0.5,7,0.1c2.4-0.4,6-0.9,7.9-6s1.1-17.3,1.1-17.3l0.5-55.9h20v66.6H286z"/>
</g>
</svg>
